<?xml version="1.0" standalone="no"?>
<!DOCTYPE svg PUBLIC "-//W3C//DTD SVG 20010904//EN"
 "http://www.w3.org/TR/2001/REC-SVG-20010904/DTD/svg10.dtd">
<svg version="1.0" xmlns="http://www.w3.org/2000/svg"
 width="500.000000pt" height="500.000000pt" viewBox="0 0 500.000000 500.000000"
 preserveAspectRatio="xMidYMid meet">
<metadata>
Created by potrace 1.14, written by Peter Selinger 2001-2017
</metadata>
<g transform="translate(0.000000,500.000000) scale(0.100000,-0.100000)"
fill="#000000" stroke="none">
<path d="M2105 4509 c-33 -5 -80 -11 -105 -14 -36 -4 -167 -32 -284 -60 -92
-22 -334 -116 -431 -168 -16 -8 -52 -28 -80 -42 -138 -73 -379 -253 -476 -357
-92 -98 -119 -129 -172 -198 -31 -41 -61 -80 -66 -86 -5 -6 -35 -55 -68 -110
-85 -139 -144 -269 -187 -409 -21 -66 -42 -131 -47 -145 -43 -121 -69 -542
-45 -735 41 -321 156 -632 328 -887 21 -31 38 -59 38 -62 0 -3 6 -14 14 -23 8
-10 45 -56 81 -103 81 -101 262 -284 360 -362 85 -67 214 -155 292 -199 93
-53 312 -159 327 -159 2 0 17 -5 33 -12 15 -6 30 -12 33 -13 21 -7 50 -19 79
-31 18 -8 36 -12 39 -10 3 3 10 2 16 -3 11 -9 138 -46 192 -55 16 -3 43 -9 59
-12 17 -4 39 -8 50 -9 11 -1 36 -5 55 -9 189 -36 547 -39 745 -6 33 6 74 12
90 15 17 3 41 7 55 11 14 3 36 8 50 10 112 21 332 100 489 177 379 185 689
465 890 804 52 89 130 243 135 268 1 6 7 19 13 30 42 79 118 363 128 480 4 39
9 73 11 77 7 10 6 336 0 346 -2 4 -7 39 -11 77 -16 178 -65 366 -147 570 -23
56 -124 252 -142 275 -7 8 -18 27 -26 43 -7 15 -17 27 -22 27 -4 0 -8 5 -8 11
0 10 -63 103 -80 119 -3 3 -18 23 -35 45 -42 57 -69 87 -166 185 -202 204
-472 386 -769 518 -49 22 -238 89 -273 97 -12 3 -78 18 -147 35 -198 47 -324
62 -550 64 -113 1 -232 -1 -265 -5z"/>
</g>
</svg>
